<svg xmlns="http://www.w3.org/2000/svg" viewBox="0 0 1200 630" role="img" aria-labelledby="t d">
  <title id="t">Włoski Wół</title><desc id="d">Okładka marki Włoski Wół w butelkowej zieleni i starym złocie.</desc>
  <defs><linearGradient id="bg" x2="1" y2="1"><stop stop-color="#080908"/><stop offset=".55" stop-color="#0b1c15"/><stop offset="1" stop-color="#341014"/></linearGradient><linearGradient id="g"><stop stop-color="#e6c989"/><stop offset="1" stop-color="#85662e"/></linearGradient></defs>
  <rect width="1200" height="630" fill="url(#bg)"/>
  <circle cx="926" cy="312" r="245" fill="#5c171d" opacity=".28"/>
  <circle cx="926" cy="312" r="178" fill="none" stroke="#c8a35f" stroke-opacity=".45" stroke-width="2"/>
  <path d="M883 253c-58-3-97-35-112-85-22 49-7 99 37 126 20 12 43 17 66 12m104-53c58-3 97-35 112-85 22 49 7 99-37 126-20 12-43 17-66 12M817 337l35 111 43-76 20 76 20-76 43 76 35-111" fill="none" stroke="url(#g)" stroke-width="14" stroke-linecap="round" stroke-linejoin="round"/>
  <text x="94" y="274" fill="#c8a35f" font-family="Arial, sans-serif" font-size="22" letter-spacing="8">WŁOSKA KUCHNIA · WIECZORNY CHARAKTER</text>
  <text x="90" y="382" fill="#f2e9d8" font-family="Georgia, serif" font-size="92">Włoski Wół</text>
  <path d="M94 430h420" stroke="#c8a35f" stroke-width="3"/>
</svg>
