<svg xmlns="http://www.w3.org/2000/svg" viewBox="0 0 1200 900" role="img" aria-labelledby="t d">
  <title id="t">Zielony detal</title><desc id="d">Abstrakcyjny placeholder zdjęcia roślinnego detalu.</desc>
  <defs><linearGradient id="bg" x2="1" y2="1"><stop stop-color="#050706"/><stop offset="1" stop-color="#132a20"/></linearGradient><radialGradient id="r" cx="22%" cy="28%"><stop stop-color="#e6c989" stop-opacity=".35"/><stop offset="1" stop-opacity="0"/></radialGradient></defs>
  <rect width="1200" height="900" fill="url(#bg)"/><rect width="1200" height="900" fill="url(#r)"/>
  <path d="M127 794C392 655 585 453 801 102" fill="none" stroke="#c8a35f" stroke-width="8" stroke-linecap="round"/>
  <g fill="#244a37" stroke="#c8a35f" stroke-opacity=".35" stroke-width="3">
    <ellipse cx="282" cy="673" rx="112" ry="40" transform="rotate(-22 282 673)"/><ellipse cx="350" cy="612" rx="112" ry="40" transform="rotate(32 350 612)"/>
    <ellipse cx="470" cy="522" rx="112" ry="40" transform="rotate(-27 470 522)"/><ellipse cx="548" cy="446" rx="112" ry="40" transform="rotate(31 548 446)"/>
    <ellipse cx="666" cy="314" rx="105" ry="38" transform="rotate(-31 666 314)"/><ellipse cx="736" cy="214" rx="93" ry="35" transform="rotate(32 736 214)"/>
  </g>
  <g fill="#5c171d" stroke="#e6c989" stroke-width="4"><circle cx="329" cy="690" r="28"/><circle cx="507" cy="536" r="25"/><circle cx="690" cy="339" r="26"/></g>
  <circle cx="975" cy="677" r="143" fill="none" stroke="#c8a35f" stroke-opacity=".23" stroke-width="3"/><circle cx="975" cy="677" r="103" fill="#5c171d" opacity=".3"/>
</svg>
